<svg width="154" height="152" viewBox="0 0 154 152" fill="none" xmlns="http://www.w3.org/2000/svg">
<path fill-rule="evenodd" clip-rule="evenodd" d="M77 90.3081C68.6181 90.3081 61.8229 83.5276 61.8229 75.1639C61.8231 66.8004 68.6182 60.0198 77 60.0198C85.3816 60.02 92.1769 66.8005 92.1771 75.1639C92.1771 83.5275 85.3817 90.3078 77 90.3081ZM76.9935 88.4991C84.3743 88.4991 90.3574 82.5287 90.3577 75.1639C90.3577 67.7989 84.3745 61.8271 76.9935 61.8271C69.6124 61.8271 63.6293 67.7989 63.6293 75.1639C63.6296 82.5287 69.6126 88.4991 76.9935 88.4991Z" fill="white"/>
<path d="M72.1599 62.3796C73.6649 61.8124 75.2957 61.5003 76.9997 61.5003C78.7033 61.5004 80.3332 61.8127 81.8379 62.3796H72.1599Z" fill="white"/>
<path d="M63.2994 75.0228C63.3582 69.587 66.5953 64.9161 71.2445 62.7655L71.2445 75.0228H63.2994Z" fill="white"/>
<path d="M83.9152 75.0228L83.9152 63.3712C87.934 65.7209 90.6463 70.0519 90.7001 75.0228H83.9152Z" fill="white"/>
<path d="M76.9997 88.8464C74.9433 88.8464 72.9933 88.3928 71.2428 87.5829V75.0244L83.9152 75.0228V86.9772C81.8849 88.1641 79.5227 88.8464 76.9997 88.8464Z" fill="white"/>
<path fill-rule="evenodd" clip-rule="evenodd" d="M79.6989 0C88.0808 0 94.876 6.78046 94.876 15.1442C94.8759 23.5077 88.0807 30.2883 79.6989 30.2883C71.3174 30.2881 64.522 23.5075 64.5218 15.1442C64.5218 6.78059 71.3172 0.000210212 79.6989 0ZM79.7055 1.80896C72.3246 1.809 66.3416 7.7794 66.3413 15.1442C66.3413 22.5092 72.3244 28.4809 79.7055 28.481C87.0865 28.481 93.0697 22.5092 93.0697 15.1442C93.0694 7.77937 87.0863 1.80896 79.7055 1.80896Z" fill="white"/>
<path d="M84.5391 27.9285C83.034 28.4956 81.4032 28.8077 79.6992 28.8077C77.9957 28.8077 76.3657 28.4954 74.861 27.9285H84.5391Z" fill="white"/>
<path d="M93.3996 15.2853C93.3408 20.7211 90.1037 25.392 85.4545 27.5426V15.2853H93.3996Z" fill="white"/>
<path d="M72.7838 15.2853V26.9369C68.7649 24.5871 66.0527 20.2561 65.9989 15.2853H72.7838Z" fill="white"/>
<path d="M79.6992 1.46163C81.7557 1.46163 83.7056 1.91526 85.4561 2.72513V15.2837L72.7838 15.2853V3.33083C74.814 2.14394 77.1763 1.46168 79.6992 1.46163Z" fill="white"/>
<path fill-rule="evenodd" clip-rule="evenodd" d="M154 75.1655C154 83.5291 147.205 90.3095 138.823 90.3097C130.441 90.3097 123.646 83.5292 123.646 75.1655C123.646 66.8022 130.441 60.023 138.823 60.023C147.204 60.0231 154 66.8023 154 75.1655ZM152.192 75.1672C152.192 67.8024 146.209 61.8324 138.828 61.832C131.447 61.832 125.462 67.8021 125.462 75.1672C125.462 82.5322 131.447 88.5024 138.828 88.5024C146.208 88.5019 152.192 82.5319 152.192 75.1672Z" fill="white"/>
<path d="M126.009 80.0204C125.439 78.5172 125.124 76.8884 125.124 75.1862C125.124 73.4844 125.439 71.8564 126.009 70.3536V80.0204Z" fill="white"/>
<path d="M138.679 88.8568C133.215 88.7989 128.521 85.5498 126.374 80.8882H138.679V88.8568Z" fill="white"/>
<path d="M138.679 68.2548H127.019C129.378 64.2611 133.71 61.5682 138.679 61.5156V68.2548Z" fill="white"/>
<path d="M152.532 75.1862C152.532 77.2222 152.083 79.1536 151.283 80.8899H138.681V68.245H150.634C151.838 70.2799 152.531 72.6519 152.532 75.1862Z" fill="white"/>
<path fill-rule="evenodd" clip-rule="evenodd" d="M129.641 129.4C123.714 135.313 114.105 135.313 108.179 129.399C102.252 123.485 102.252 113.898 108.179 107.984C114.105 102.07 123.714 102.069 129.641 107.983C135.568 113.897 135.568 123.486 129.641 129.4ZM128.357 128.121C133.576 122.913 133.576 114.47 128.357 109.262C123.138 104.054 114.676 104.054 109.457 109.262C104.238 114.47 104.238 122.913 109.457 128.121C114.676 133.329 123.138 133.329 128.357 128.121Z" fill="white"/>
<path d="M106.443 113.04C107.104 111.59 108.032 110.232 109.227 109.039C110.422 107.847 111.783 106.922 113.235 106.262L106.443 113.04Z" fill="white"/>
<path d="M109.108 128.251C105.3 124.357 104.289 118.762 106.068 113.96L114.749 122.622L109.108 128.251Z" fill="white"/>
<path d="M123.711 113.68L115.484 105.471C119.974 104.317 124.932 105.466 128.481 108.92L123.711 113.68Z" fill="white"/>
<path d="M124.499 131.195C124.227 131.316 123.952 131.428 123.674 131.53L114.75 122.626L123.711 113.685L132.181 122.137C131.993 122.866 131.741 123.583 131.43 124.279L124.499 131.195Z" fill="white"/>
<path d="M128.606 128.376C127.387 129.591 125.996 130.527 124.512 131.189L131.425 124.291C130.762 125.772 129.824 127.16 128.606 128.376Z" fill="white"/>
<path fill-rule="evenodd" clip-rule="evenodd" d="M129.643 22.3134C135.57 28.2274 135.57 37.8164 129.643 43.7305C123.716 49.6445 114.106 49.6445 108.179 43.7305C102.253 37.8164 102.253 28.2284 108.18 22.3145C114.107 16.4007 123.716 16.3999 129.643 22.3134ZM128.361 23.6063C123.142 18.3989 114.68 18.3986 109.461 23.6063C104.242 28.8141 104.242 37.2573 109.461 42.4651C114.68 47.673 123.143 47.6741 128.362 42.4663C133.581 37.2584 133.58 28.8142 128.361 23.6063Z" fill="white"/>
<path d="M113.292 45.4898C111.818 44.8283 110.437 43.8955 109.226 42.6874C108.016 41.4794 107.081 40.101 106.418 38.6301L113.292 45.4898Z" fill="white"/>
<path d="M128.498 42.791C124.6 46.5979 118.994 47.6156 114.179 45.849L122.87 37.176L128.498 42.791Z" fill="white"/>
<path d="M113.909 28.2221L105.654 36.4587C104.488 31.9656 105.645 26.9984 109.128 23.4521L113.909 28.2221Z" fill="white"/>
<path d="M128.605 23.3508C130.053 24.7961 131.107 26.4856 131.771 28.2854L122.874 37.1633L113.913 28.2221L122.366 19.7874C124.652 20.3786 126.815 21.5644 128.605 23.3508Z" fill="white"/>
<path fill-rule="evenodd" clip-rule="evenodd" d="M116.184 38.0877C122.111 44.0017 122.111 53.5907 116.184 59.5047C110.257 65.4188 100.647 65.4188 94.7202 59.5047C88.7937 53.5907 88.7946 44.0027 94.7214 38.0888C100.648 32.175 110.257 32.174 116.184 38.0877ZM114.909 39.3806C109.69 34.1727 101.226 34.1727 96.0067 39.3806C90.7879 44.5885 90.7888 53.0328 96.0079 58.2406C101.227 63.4478 109.689 63.4479 114.908 58.2406C120.127 53.0329 120.128 44.5885 114.909 39.3806Z" fill="white"/>
<path d="M99.8266 61.3087C98.3532 60.6473 96.9719 59.7151 95.7616 58.5075C94.5514 57.2998 93.6172 55.9216 92.9544 54.4513L99.8266 61.3087Z" fill="white"/>
<path d="M115.034 58.6099C111.136 62.4179 105.529 63.4354 100.713 61.6679L109.406 52.9937L115.034 58.6099Z" fill="white"/>
<path d="M100.444 44.0421L92.1905 52.2776C91.0249 47.7847 92.1808 42.8183 95.6636 39.2722L100.444 44.0421Z" fill="white"/>
<path d="M115.14 39.1709C116.589 40.6162 117.642 42.3055 118.306 44.1055L109.409 52.9834L100.449 44.0421L108.903 35.6063C111.188 36.1976 113.35 37.3846 115.14 39.1709Z" fill="white"/>
<path fill-rule="evenodd" clip-rule="evenodd" d="M34.385 116.736C28.4586 110.822 28.4576 101.234 34.3838 95.3202C40.3106 89.4063 49.9206 89.4065 55.8475 95.3202C61.7744 101.234 61.7744 110.823 55.8475 116.737C49.9206 122.651 40.3117 122.65 34.385 116.736ZM35.6658 115.444C40.8848 120.652 49.3475 120.653 54.5667 115.446C59.7859 110.238 59.7859 101.792 54.5667 96.5844C49.3475 91.3769 40.8848 91.3778 35.6658 96.5856C30.4472 101.793 30.4471 110.237 35.6658 115.444Z" fill="white"/>
<path d="M50.6919 93.5609C52.1781 94.2232 53.572 95.1591 54.7915 96.3759C56.011 97.5928 56.949 98.9837 57.6127 100.467L50.6919 93.5609Z" fill="white"/>
<path d="M35.5098 96.2827C39.4088 92.4666 45.0236 91.446 49.8439 93.2167L41.1405 101.901L35.5098 96.2827Z" fill="white"/>
<path d="M50.1035 110.854L58.3638 102.612C59.528 107.107 58.3686 112.075 54.8804 115.62L50.1035 110.854Z" fill="white"/>
<path d="M35.4117 115.714C33.9648 114.27 32.9112 112.583 32.2467 110.785L41.137 101.914L50.0977 110.855L41.6563 119.278C39.3688 118.688 37.2033 117.501 35.4117 115.714Z" fill="white"/>
<path fill-rule="evenodd" clip-rule="evenodd" d="M80.3451 121.713C88.727 121.713 95.5222 128.494 95.5222 136.857C95.5219 145.221 88.7268 152 80.3451 152C71.9635 152 65.1684 145.221 65.168 136.857C65.168 128.494 71.9633 121.713 80.3451 121.713ZM80.3517 123.522C72.9707 123.522 66.9876 129.493 66.9875 136.857C66.9875 144.223 72.9706 150.193 80.3517 150.193C87.7326 150.193 93.7159 144.222 93.7159 136.857C93.7157 129.493 87.7326 123.522 80.3517 123.522Z" fill="white"/>
<path d="M85.2138 149.654C83.7032 150.226 82.066 150.543 80.3544 150.543C78.6425 150.543 77.0042 150.226 75.4933 149.654H85.2138Z" fill="white"/>
<path d="M94.0531 137.011C93.9976 142.453 90.7568 147.129 86.1015 149.28V137.011H94.0531Z" fill="white"/>
<path d="M73.4243 137.011V148.662C69.4107 146.309 66.7047 141.98 66.654 137.011H73.4243Z" fill="white"/>
<path d="M80.3544 123.195C82.4054 123.195 84.3497 123.648 86.0966 124.454V137.011H73.4243L73.4259 125.073C75.4589 123.881 77.8263 123.195 80.3544 123.195Z" fill="white"/>
<path fill-rule="evenodd" clip-rule="evenodd" d="M30.3526 75.7142C30.3525 84.0777 23.5587 90.8581 15.1771 90.8584C6.79525 90.8584 5.92366e-05 84.0779 0 75.7142C3.66384e-07 67.3506 6.79522 60.5701 15.1771 60.5701C23.5588 60.5704 30.3526 67.3507 30.3526 75.7142ZM28.5462 75.7142C28.5458 68.3496 22.5612 62.3791 15.1804 62.3791C7.79985 62.3794 1.8166 68.3498 1.81616 75.7142C1.81616 83.0791 7.79959 89.0507 15.1804 89.0511C22.5614 89.0511 28.5462 83.0793 28.5462 75.7142Z" fill="white"/>
<path d="M2.35069 80.5626C1.77938 79.0575 1.46308 77.4267 1.46301 75.7219C1.46301 74.0167 1.77922 72.3848 2.35069 70.8795L2.35069 80.5626Z" fill="white"/>
<path d="M28.8702 75.7219C28.8701 77.7588 28.4208 79.6904 27.6203 81.4272H15.0214V89.3908C9.55657 89.334 4.86256 86.0866 2.71457 81.4255L15.0214 81.4272V68.7921H3.35586C5.71538 64.7962 10.0493 62.1029 15.0214 62.0512L15.0214 68.7823H26.9741C28.1775 70.8167 28.8702 73.1885 28.8702 75.7219Z" fill="white"/>
<path fill-rule="evenodd" clip-rule="evenodd" d="M43.8166 43.729C37.8898 49.6429 28.2799 49.6428 22.353 43.729C16.4261 37.815 16.4261 28.226 22.353 22.3119C28.2799 16.3979 37.8898 16.3979 43.8166 22.3119C49.7433 28.226 49.7434 37.8151 43.8166 43.729ZM42.537 42.4499C47.7561 37.2421 47.7559 28.7989 42.537 23.5911C37.3178 18.3832 28.8552 18.3821 23.636 23.5899C18.4168 28.7978 18.418 37.242 23.6372 42.4499C28.8564 47.6574 37.3179 47.6576 42.537 42.4499Z" fill="white"/>
<path d="M20.5949 27.3893C21.2572 25.9262 22.188 24.554 23.393 23.3516C24.5982 22.149 25.9741 21.2194 27.4406 20.5585L20.5949 27.3893Z" fill="white"/>
<path d="M23.2857 42.5754C19.4719 38.6834 18.4556 33.0866 20.2315 28.2816L28.921 36.9523L23.2857 42.5754Z" fill="white"/>
<path d="M38.7067 45.4894C38.4184 45.6188 38.1269 45.7378 37.8321 45.8463L28.9222 36.9557L37.8805 28.0168L29.6341 19.7882C34.1353 18.6244 39.1112 19.7772 42.6655 23.2491L37.8863 28.0179L46.3451 36.4583C46.1531 37.1985 45.8982 37.9251 45.5801 38.6309L38.7067 45.4894Z" fill="white"/>
<path d="M42.7728 42.6893C41.5655 43.8939 40.1876 44.8237 38.7182 45.4848L45.5755 38.6424C44.9129 40.1089 43.9803 41.4845 42.7728 42.6893Z" fill="white"/>
<path fill-rule="evenodd" clip-rule="evenodd" d="M43.7997 107.946C49.7264 113.86 49.7273 123.448 43.8008 129.362C37.8739 135.276 28.264 135.276 22.3372 129.362C16.4106 123.448 16.4104 113.859 22.3372 107.945C28.264 102.032 37.8729 102.033 43.7997 107.946ZM42.5189 109.217C37.2998 104.01 28.8383 104.01 23.6191 109.217C18.3999 114.425 18.3999 122.868 23.6191 128.076C28.8383 133.284 37.2997 133.284 42.5189 128.076C47.738 122.868 47.7381 114.425 42.5189 109.217Z" fill="white"/>
<path d="M27.4729 131.141C25.9888 130.479 24.5971 129.543 23.3791 128.327C22.1614 127.112 21.2237 125.724 20.5603 124.244L27.4729 131.141Z" fill="white"/>
<path d="M42.6585 128.423C38.7594 132.238 33.1462 133.257 28.3267 131.487L37.0278 122.805L42.6585 128.423Z" fill="white"/>
<path d="M28.0671 113.852L19.8068 122.094C18.642 117.599 19.8023 112.631 23.2902 109.085L28.0671 113.852Z" fill="white"/>
<path d="M42.7578 108.991C44.2052 110.435 45.2583 112.124 45.9227 113.922L37.0324 122.793L28.0717 113.852L36.5167 105.425C38.8032 106.016 40.9667 107.204 42.7578 108.991Z" fill="white"/>
<path d="M81.8774 121.218H78.5355V89.9384C79.6945 89.8106 80.813 89.5519 81.8774 89.1764V121.218Z" fill="white"/>
<path d="M65.0359 84.2901C65.726 85.1665 66.51 85.9654 67.3758 86.669L34.1171 119.859L31.7543 117.501L65.0359 84.2901Z" fill="white"/>
<path d="M110.97 106.581L108.64 108.971L85.9715 86.9669C86.8612 86.2901 87.6732 85.5176 88.3914 84.663L110.97 106.581Z" fill="white"/>
<path d="M123.362 73.3615V76.6961H91.8083C91.869 76.1485 91.903 75.5924 91.903 75.0288C91.903 74.4651 91.869 73.909 91.8083 73.3615H123.362Z" fill="white"/>
<path d="M61.9208 73.3615C61.8601 73.909 61.8262 74.4651 61.8262 75.0288C61.8262 75.5924 61.8601 76.1485 61.9208 76.6961H30.0784V73.3615H61.9208Z" fill="white"/>
<path d="M66.8944 63.7972C66.0586 64.5366 65.3063 65.3672 64.6524 66.2738L41.775 44.0664L44.1051 41.6761L66.8944 63.7972Z" fill="white"/>
<path d="M95.2057 58.9028L88.5301 65.5622C87.8245 64.6976 87.0235 63.9148 86.1444 63.2257L92.8429 56.5451L95.2057 58.9028Z" fill="white"/>
<path d="M81.8774 60.8795C80.8131 60.5041 79.6944 60.2453 78.5355 60.1174V29.5165H81.8774V60.8795Z" fill="white"/>
</svg>
