<?xml version="1.0" encoding="UTF-8"?>
<svg id="Layer_1" xmlns="http://www.w3.org/2000/svg" version="1.1" viewBox="0 0 115 103.73">
  <!-- Generator: Adobe Illustrator 30.4.0, SVG Export Plug-In . SVG Version: 2.1.4 Build 226)  -->
  <defs>
    <style>
      .st0 {
        fill: #fff;
      }
    </style>
  </defs>
  <g id="_59CipI">
    <path class="st0" d="M92.47,99.7c-.42-.38-1.02-.66-1.13-.62-.1.04-.2.16-.28.39-.41-.55-.95-.43-1.45-.31-.66-.65-1.26.26-2.11-.66l-1.96.45c-.49.11-.59-.15-.82-.47-.42-.57-2.67-.75-3.19-.61s-1.1.46-1.55-.05c-.13-.15-.18-.59-.54-.57-.31,0-.55.26-.78.39,0-.25.03-.43-.04-.58s-.36-.03-.53-.05l-1.84-.23c-.1-1.27-1.14-1.39-.5-2.28-.47-.57-.74-1.34-.65-2.12.06-.58-.15-1.32-.42-1.85-.11-.23-.42-.34-.24-.67l-.54-.22c.04-.18.02-.37-.13-.49-.1-.07-.31-.15-.49-.17l-2.04-.33c-.31-.05-.88.2-1.18.3-1.36,1.39-2.56.23-2.76,1.65-.08.57-.79.68-1.21.45-.3-.16-.53-.02-.68.24-.07.12-.42.12-.54.23-.54.46-1.06.86-1.64,1.18l-.91-.11c-.23-.82-1.12-.11-1.3-.81-.03-.15-.21-.39-.41-.34-.51.14-.94-.15-1.4-.13-.52.02-1.31.68-2.7-.75-.13-.13-.09-.61-.26-.67l-1.93-.69-1.9-1.24c-.22-.15-.54-.13-.62-.47l.56-.24c-.31-.18-.46-.31-.62-.57-.61-1-1.54-.47-2.22-1.28-.32-.39-.67-.43-1.12-.46-1.71-.09-1.62.2-2.51-1.01-.16-.23-.84-.32-.8-.75s.04-.72-.28-1.03c-.56-.55-.81-1.35-.78-2.11.03-.63-.42-.81-.91-.94-.33-.09-.56-.68-.44-.94.22.09.4.16.5.07.21-.18.1-.36,0-.51-.36-.49-.68-.4-1.19-.34-.34.03-.19-.6-.03-.78.09-.34-.06-.75-.05-1.14-.44-.16-.62-.56-.92-.83-.94-.81-.97-1.49-1.76-2,0-.55-.02-1.07-.37-1.51-.55-.67-1.66.74-2.69,1.01-.26,0-.23-.55-.33-.71-.2-.3-.88-.15-1.18-.09-.13-.11-.15-.23-.2-.4-1.13-.21-1.34-1.16-1.65-.94-.36.24,0,.62.13.82.23.36.05.82,0,1.19-.55.19-1.18-.05-1.26.07l-.21.36c-.11.18-.75.09-.89-.15-.15-.22-.31-.62-.4-.83.07-.35.06-.53-.2-.81-.23-.24-.41-.35-.76-.29-.11-.16-.12-.52-.23-.63-.14-.15-.42-.23-.72-.2l-.02-3.19-1.78-.02.09-2.48.79-2.31c-.34-.38-.58-.84-.89-1.25l-.51-.66c-.07-.09-.24-.16-.32-.2-.13-.09.25-.46-.52-1.08.11-.49-.33-1.08-.83-.94-.33.09-.56.23-.87-.04l-1.99-1.73-1.33-.88c-.83-.55-1.68,0-1.85-.43-.03-.09.1-.2.29-.37l-.57-.41c.33-.07.55-.1.7-.29.38-.49-.6-.98-.74-1.79-.08-.46-.73-.02-.75-.3,0-.11.08-.16.2-.23.2-.12-.02-.42-.14-.5-.19-.11-.46-.03-.72.26.02-.38-.27-.49-.38-.7l-.61-1.04c-.18-.31-.3-.59-.81-.56.1-.5.45-.81.75-1.2-.03-.49.29-.85.1-1.13-.06-.09-.22-.13-.41-.06-.16-.25-.23-.49-.29-.76.22-.03.37-.11.42-.21.08-.16.04-.41.03-.68.25.1.7.36,1.01.18.11-.27-.13-.75-.31-.94l.19-.62c.31-.06.46-.3.41-.62.18.05.29.09.39.09.32-.02.03-1.21.56-1.12.42.08.91.09,1.07-.36.05-.14.13-.34.07-.44-.04-.1-.22-.16-.35-.22.09-.11.16-.22.17-.3.08-.42-1.26-.67-.58-2.52,1.45-.02,1.91-.82,1.49-.86-.15-.02-.31.16-.68.17-.11,0-.23-.29-.34-.3-.84-.1-1.75.52-1.94.07-.22-.5-.81-1.11-1.39-1.07-.19,0-.61.34-.68.02.03-.26.09-.51,0-.81l-.49-1.89c-.27.08-.47.14-.64.12s-.21-.33-.29-.43c-.54-.65.2-.94-.1-1.49-.35-.62-1.52-.26-.81-1.04.13-.29.04-.72,0-1.01-.15-.08-.38-.17-.49-.28-.12-.11-.16-.92.13-1.4-.29-.39-.76-.67-1.15-.93v-1.07c0-.1-.17-.24-.16-.33s.16-.22.21-.33c.1-.2-.09-.36-.23-.46-.1-.07-.36,0-.49-.03-.36-.6-.46-.72-1.2-.66-.09-.75.49-1.24.76-1.9.14-.35.05-.79.51-1.01.08-.03-.03-.29-.1-.32-.26-.11-.43.1-.61,0-.37-.19.07-1.2-.17-1.62-.26-.46-.12-.88-.1-1.36-.11-.3-.69-.66-.61-1.13.06-.32.22-.67.16-1.03l-.52-.31c0-.45-.11-.82-.35-1.24.77-.46,1.38.2,1.88-.18.31-.24.05-1.8.85-2.29.07-.04.16-.16.27-.13s.13.16.23.23l1.33.99c.18.26.09.81.42,1.02.49.33.81.79.92,1.41l.84.21.81,1.29c.23.36.89.22,1.25.3l1.52.38c.36.09.76.33,1.11.08.96-.69,1.69.46,2-.35.12-.31.35-.38.55-.62l.84-.97c1.06.31.66-.88,1.68-1.16.29-.08.59-.29.74-.55.2-.36.56-.36.86-.55l1.49-1.01c.26-.17.61-.16.94-.27l1.88,2.08c-.36.43-1.06.35-1.2.75-.3.81,1.15.99.99,1.68-.14.61-1.73.29-1.59,1.13.09.5.81.57,1.07.83.19.21.16.51.36.67s.38.19.72.03c.22.56.91,1.42,1.01,1.46.2.08.49.05.63-.16.14-.2.72-.22.72,0,0,1,.16,1.9.35,2.85.17.87.3,1.78.94,2.3.47.37,1.05.75,1.67.88.67.14,1.36.28,2.03.26.37,0,.54-.13.89.16l1.04.33c.18.53.25,1.16.66,1.54l.74.68,2.95,1.89,4.25.99c.66.16,1.29-.19,1.93-.34l3.14-.72c1.68-.39,3.27-.96,5.02-.9.37,0,.64-.23,1-.23-.56.54-1.3.25-2,.52.49.36,1.39.48,1.92.2.41-.21.08-.81.02-1.09l-.5-2.21,1.43.04.93-.24.88-.46c.42,0,.63,0,.98-.27.32-.25.5-.5.36-.97-.09-.29.12-.79.42-.93.55-.25.8-.76,1.26-1.07.5-.33,1.06-.58,1.59-.87.43-.23,1.14-.29,1.64-.29l1.27.28c.92-.14,1.43.1,1.68-.15.08-.08-.1-.35-.08-.45.17-.59.93-.76,1.46-.49l.73-.25c.31.35.73.36,1.13.48.87.25.83-.43,1.13-.48.16-.02.24.1.33.26l.58,1.13-.05.49c-.02.16.29.27.5.3l1.49.25c.69.11,1.54.7,2.36.77.06.2.08.48.15.61.11.21,1,.45,1.26.36.16-.06.27-.22.46-.54.44.68.84.39,1.33.31.67-.11,1.42.45,1.88.84.29.24.49.07.74.07.23,0,.33.48.28.68-.12.47.16.77.43,1.1.16.18.23.45.55.42.09,0,.23.21.22.36.56-.13,1,.07,1.44.43l.84.3c.25.62.64,1.11,1.07,1.62l.41.8,4.28.03c.49,0-.26,1.48.22,2.43s-.29,1.68-.15,1.81l.29.26c.36.53.1,1.08.12,1.67,0,.23.42.56.22.88-.28.43-.5.91-.47,1.45-.23.03-.36.12-.42.21-.2.31.22.62.07,1.25l-.36,1.53c-.09.36-.6.62-.51,1.09-.25.11-.43.4-.68.5l-.62.26c.31.47.7.76.98,1.33-.95-.18-1.92.31-2.07,1.27l.13,1.89c.03.39-.26.76.07,1.12.7.75,1.73.09,2.04.7-.18.06-.4.09-.42.18l-.1.39-.96,1.13c-.34.4-.49.79-.34,1.33l1.31,4.54c.15.51-.16.96-.16,1.43l.02,1.62c0,.57,0,1.07.16,1.69l4.05.58c.47.07.68.31.7.79l.37,1.39-.1,1.05-4.93,5.91,2.23,2.62c.23.26.37.29.34.72-.03.49.52.87.68,1.25l.28.66c.58,1.39,1.69,2.69,3.17,2.9l1.07.32c.47.14.71.69,1.03,1.03.36.07.67-.06,1.07-.11l-.08,1.42c.12,1.08.43,2.13.31,3.25-.03.29-.29.73-.15,1.15.75.57,1.78-.24,2.3.11.23.16.43.36.46.65-.85.29-.14,1.42-.27,1.48l-.35.17-.15,1.17-1.98.02c-.58.21-1.12.35-1.75.42-.67.08-1.04.66-.9,1.26l-.48-.15c-.22-.07-.29.18-.44.24l-1.34.55-.39,2.39c-.13,0-.48.14-.44.24.09.37-.06.63-.09.96l-.14,1.74c-.03.36-.19.3-.36.48-.21.2-.36.71-.69.69-.56-.02-.93-.4-1.38-.5l-2.68-.61-.19-.74c-.07-.27-.38-.23-.6-.17-.16.04-.48.19-.32.49.07.13.36.31.18.49h-.11Z"/>
  </g>
</svg>