<svg width="294" height="88" viewBox="0 0 294 88" fill="none" xmlns="http://www.w3.org/2000/svg">
<path d="M294 88H0V0H294V88ZM15 13V18.6367H20.6553V24.2744H26.3086V29.9111H31.9639V24.2744H37.6191V18.6367H54.583V24.2744H60.2383V29.9111H65.8936V35.5449H71.5469V52.4551H65.8936V58.0889H60.2383V63.7256H54.583V69.3633H37.6191V63.7256H31.9639V58.0889H26.3086V63.7256H20.6553V69.3633H15V75H26.3086V69.3633H31.9639V75H60.2383V69.3633H65.7773V75H77.085V69.3633H82.7402V75H111.017L111.015 69.3633H116.244V75H127.551V69.3633H133.208V75H161.482V69.3633H167.021V75H178.329V69.3633H183.984V75H212.26V69.3633H217.798V75H229.104V69.3633H234.76V75H263.037V69.3633H268.692V63.7256H274.344V58.0889H280V29.9111H274.344V24.2744H268.692V18.6367H263.037V13H234.76V18.6367H229.104V13H217.797V18.6367H212.26V13H183.984V18.6367H178.329V13H167.021V18.6367H161.482V13H133.208V18.6367H127.553L127.551 13H116.244V18.6367H111.015L111.017 13H82.7402V18.6367H77.085V13H65.7783V18.6367H60.2383V13H31.9639V18.6367H26.3086V13H15ZM71.4336 63.7256V69.3633H65.8936V63.7256H71.4336ZM105.359 18.6367V24.2744H111.015V29.9111H116.672V35.5449H122.323V52.4551H116.672V58.0889H111.015V63.7256H105.359V69.3633H88.3965V63.7256H82.7402V58.0889H77.2021V46.8184H82.7402V52.4551H88.3965V58.0889H94.0527V63.7256H99.7041V58.0889H105.359V52.4551H111.017L111.015 46.8184H116.672V41.1816H111.015L111.017 35.5449H105.359V29.9111H99.7041V24.2744H94.0527V29.9111H88.3965V35.5449H82.7402V41.1816H77.2021V29.9111H82.7402V24.2744H88.3965V18.6367H105.359ZM121.899 63.7256V69.3633H116.672V63.7256H121.899ZM155.827 18.6367V24.2744H161.482V29.9111H167.138V35.5449H172.791V52.4551H167.138V58.0889H161.482V63.7256H155.827V69.3633H138.863V63.7256H133.208V58.0889H127.979V46.8184H133.208V52.4551H138.863V58.0889H144.519V63.7256H150.17L150.171 58.0889H155.827V52.4551H161.482V46.8184H167.138V41.1816H161.482V35.5449H155.827V29.9111H150.171L150.17 24.2744H144.519V29.9111H138.863V35.5449H133.208V41.1816H127.979V29.9111H133.208V24.2744H138.863V18.6367H155.827ZM172.677 63.7256V69.3633H167.138V63.7256H172.677ZM206.604 18.6367V24.2744H212.26V29.9111H217.915V35.5449H223.567V52.4551H217.915V58.0889H212.26V63.7256H206.604V69.3633H189.64V63.7256H183.984V58.0889H178.446V46.8184H183.984V52.4551H189.64V58.0889H195.295V63.7256H200.948V58.0889H206.604V52.4551H212.26V46.8184H217.915V41.1816H212.26V35.5449H206.604V29.9111H200.948V24.2744H195.295V29.9111H189.64V35.5449H183.984V41.1816H178.446V29.9111H183.984V24.2744H189.64V18.6367H206.604ZM223.453 63.7256V69.3633H217.915V63.7256H223.453ZM257.382 18.6367V24.2744H263.037V29.9111H268.692V35.5449H274.344V52.4551H268.692V58.0889H263.037V63.7256H257.382V69.3633H240.417V63.7256H234.76V58.0889H229.223V46.8184H234.76V52.4551H240.417V58.0889H246.072V63.7256H251.724V58.0889H257.382V52.4551H263.037V46.8184H268.692V41.1816H263.037V35.5449H257.382V29.9111H251.724V24.2744H246.072V29.9111H240.417V35.5449H234.76V41.1816H229.223V29.9111H234.76V24.2744H240.417V18.6367H257.382ZM43.2744 24.2744V29.9111H37.6191V35.5449H31.9639V41.1816H26.3086V46.8184H31.9639V52.4551H37.6191V58.0889H43.2744V63.7256H48.9277V58.0889H54.583V52.4551H60.2383V46.8184H65.8936V41.1816H60.2383V35.5449H54.583V29.9111H48.9277V24.2744H43.2744ZM77.085 58.0889V63.7256H71.5469V58.0889H77.085ZM127.553 58.0889L127.551 63.7256H122.323V58.0889H127.553ZM178.329 58.0889V63.7256H172.789L172.791 58.0889H178.329ZM229.104 58.0889V63.7256H223.567V58.0889H229.104ZM48.9277 35.5449V41.1816H54.583V46.8184H48.9277V52.4551H43.2744V46.8184H37.6191V41.1816H43.2744V35.5449H48.9277ZM99.7041 35.5449V41.1816H105.359V46.8184H99.7041V52.4551H94.0527V46.8184H88.3965V41.1816H94.0527V35.5449H99.7041ZM150.171 35.5449V41.1816H155.827V46.8184H150.171V52.4551H144.519V46.8184H138.863V41.1816H144.519V35.5449H150.171ZM200.948 35.5449V41.1816H206.604V46.8184H200.948V52.4551H195.295V46.8184H189.64V41.1816H195.295V35.5449H200.948ZM251.724 35.5449V41.1816H257.382V46.8184H251.724V52.4551H246.072V46.8184H240.417V41.1816H246.072V35.5449H251.724ZM77.085 24.2744V29.9111H71.5469V24.2744H77.085ZM127.553 24.2744V29.9111H122.323V24.2744H127.553ZM178.329 24.2744V29.9111H172.791L172.789 24.2744H178.329ZM229.104 24.2744V29.9111H223.567V24.2744H229.104ZM71.4336 18.6367V24.2744H65.8936V18.6367H71.4336ZM121.899 18.6367V24.2744H116.672V18.6367H121.899ZM172.677 18.6367V24.2744H167.138V18.6367H172.677ZM223.453 18.6367V24.2744H217.915V18.6367H223.453Z" fill="white"/>
</svg>
