<?xml version="1.0" encoding="UTF-8"?>
<svg id="Layer_1" xmlns="http://www.w3.org/2000/svg" version="1.1" viewBox="0 0 164.16 80">
  <!-- Generator: Adobe Illustrator 30.4.0, SVG Export Plug-In . SVG Version: 2.1.4 Build 226)  -->
  <defs>
    <style>
      .st0 {
        fill: #fff;
      }
    </style>
  </defs>
  <path class="st0" d="M115.31,35.08s-.03.11-.04.16h11.3v-6.58h-14.96l-.44.44c-.39.39-1.03.39-1.43,0l-.05-.05v6.18h3.21c.06-.16.12-.3.18-.47l2.23.31h0Z"/>
  <rect class="st0" x="83.39" y="28.8" width="16.95" height="20.07"/>
  <path class="st0" d="M111.25,38.93c.03-.12.07-.27.11-.4l-1.89.21.47,4.26c.09-.26.22-.53.3-.79.33-.97.66-2.07,1.01-3.29h0Z"/>
  <g>
    <g>
      <path class="st0" d="M114.52,35.62s-.03.11-.04.16h11.23v-6.53h-14.86l-.44.44c-.39.39-1.03.39-1.42,0l-.05-.05v6.14h3.19c.06-.16.11-.3.18-.47l2.21.31Z"/>
      <rect class="st0" x="82.82" y="29.38" width="16.83" height="19.93"/>
      <path class="st0" d="M.57.28v79.45h163.02V.28H.57ZM31.25,43.79c0,.67-.07,1.21-.27,1.82-1.68,4.98-4.38,9.02-7.41,11.72-.2.14-.34.2-.6.2h-6.74c-.27,0-.4-.07-.6-.2-3.03-2.69-5.72-6.73-7.41-11.72-.2-.61-.27-1.15-.27-1.82V7.36h3.71v40.4h15.89V7.36h3.71v36.43h0ZM58.27,51.6c-.15.17-.28.39-.42.58v5.01h-2.37c-.25.68-.5,1.39-.77,2.16-1.23,3.53-2.15,5.53-2.77,6.03-.33.29-1.11.65-2.34,1.08s-2.87.95-4.92,1.57c-4.22,1.23-8.12,2.21-11.68,2.95l-.49-1.54c4.02-2.79,8.32-5.92,12.91-9.41,1.89-1.44,3.41-2.66,4.58-3.69,1.17-1.02,2.16-2.05,2.98-3.07.43-.54.87-1.18,1.3-1.85v-20.82h-16.9v26.6h-3.57V21.5h2.69l.67,5.72h1.95c1.08-1.55,3.37-4.24,5.19-5.59.61-.34,1.08-.47,1.75-.47h2.9c.67,0,1.15.13,1.68.6,3.16,2.56,5.12,5.66,6.87,10.3.27.61.34,1.15.34,1.82v11.26l.79-1.42c.58-1.07,1.42-2.11,2.52-3.13s2.5-1.99,4.18-2.89c1.68-.94,3.03-1.74,4.06-2.4,1.02-.66,1.74-1.19,2.15-1.6.74-.74,1.45-2.15,2.15-4.24l1.84.25c-1.52,7.67-3.22,12.58-5.1,14.76-.9,1.07-1.99,1.99-3.26,2.77-1.27.78-2.68,1.43-4.24,1.97-2.08.7-3.52,1.44-4.44,2.22-.07.07-.16.11-.22.18h0ZM75.76,70.85l-3.35,3.35c-.41.41-1.07.41-1.47,0l-3.16-3.16-3.14,3.14c-.42.42-1.1.42-1.52,0l-3.3-3.3c-.42-.42-.42-1.1,0-1.52l3.3-3.3c.42-.42,1.1-.42,1.52,0l3.14,3.14,3.16-3.16c.41-.41,1.07-.41,1.47,0l3.35,3.35c.41.41.41,1.07,0,1.47h0ZM76.69,57.19h-9.7v-7.07h9.7v7.07ZM130.56,45.54c0,.27,0,.41-.07.67-1.28,4.38-3.16,7.54-7.07,10.71-.54.47-1.01.61-1.68.61h-7.41c-.67,0-1.15-.14-1.68-.54-1.48-1.2-2.71-2.57-3.77-4.14-.87,1.98-1.76,3.85-2.71,5.55-1.23,2.19-2.46,3.89-3.69,5.07-.33.29-1.05.68-2.15,1.17-1.11.49-2.41,1-3.9,1.54-1.5.53-3.05,1.07-4.64,1.6-1.6.53-3.09,1-4.46,1.41s-2.45.72-3.23.92l-.49-1.54c1.11-.78,2.47-1.77,4.09-2.98,1.62-1.21,3.34-2.56,5.16-4.06,1.82-1.5,3.61-3.01,5.35-4.55.72-.64,1.4-1.26,2.06-1.88l-.4-3.09h-1.95c-1.08,1.55-3.37,3.84-5.19,5.05-.61.34-1.08.47-1.75.47h-2.83c-.67,0-1.15-.14-1.68-.61-3.16-2.63-5.12-6.13-6.87-10.84-.27-.61-.34-1.15-.34-1.82v-9.83c0-.67.07-1.21.27-1.82,1.28-4.17,3.23-7.74,6.94-10.84.54-.4,1.01-.6,1.68-.6h2.63c.67,0,1.15.13,1.75.47,1.82,1.21,4.11,3.5,5.19,5.05h1.95V6.69h3.57v45.46c1.19-1.28,2.12-2.43,2.75-3.43.14-.23.26-.44.39-.66-.23-.57-.45-1.16-.66-1.77-.27-.6-.34-1.14-.34-1.82v-10.24c0-.67.07-1.21.27-1.82.47-1.54,1.04-2.97,1.75-4.32l-1.81-1.81c-.39-.39-.39-1.03,0-1.42l3.41-3.41c.39-.39,1.03-.39,1.42,0l1.19,1.19c.32-.29.63-.59.98-.88.54-.4,1.01-.6,1.68-.6h6.6c.67,0,1.14.13,1.68.54,3.1,2.42,4.98,4.51,6.4,8.01.27.61.34,1.15.34,1.82v7.61h-15.63c-.33,1.23-.71,2.52-1.13,3.88-.6,1.95-1.29,3.89-2.02,5.81.14.13.23.28.38.41.2.14.34.2.61.2h13.6l2.29-4.04h3.17v.13h0ZM157.49,33.29h-3.16l-2.29-4.04h-10.44v21.21h8.42v6.73h-18.38v-6.73h6.4v-21.21h-6.4v-7.75h6.94l.67,5.32h1.62c1.08-1.55,2.69-3.77,4.38-5.12.54-.41,1.01-.54,1.68-.54h2.09c.67,0,1.15.13,1.75.54,2.49,1.75,4.71,4.71,6.67,10.77.07.27.07.4.07.67v.14h-.02Z"/>
      <path class="st0" d="M110.48,39.45c.03-.12.07-.27.11-.39l-1.88.21.47,4.24c.09-.26.21-.53.3-.79.33-.96.66-2.05,1-3.26h0Z"/>
    </g>
    <g>
      <path class="st0" d="M32.86,71.11l-.63-1.96.17-.11c3.98-2.76,8.32-5.93,12.9-9.4,1.91-1.45,3.4-2.66,4.57-3.68,1.15-1.01,2.14-2.03,2.95-3.04.63-.79,1.25-1.75,1.99-2.94l3.64-6.55c.58-1.08,1.45-2.16,2.57-3.2,1.11-1.03,2.54-2.02,4.24-2.93,1.72-.97,3.04-1.75,4.04-2.39,1.01-.65,1.72-1.17,2.11-1.56.7-.7,1.4-2.1,2.09-4.13l.07-.21,2.35.31-.06.28c-1.52,7.68-3.26,12.68-5.16,14.88-.92,1.08-2.03,2.03-3.32,2.82s-2.73,1.46-4.3,1.99c-1.97.67-3.43,1.4-4.35,2.17-.04.04-.08.07-.13.1-.03.02-.06.04-.07.05-.72.8-1.33,1.84-1.83,3.09-.48,1.2-1.03,2.69-1.69,4.57-1.68,4.81-2.43,5.81-2.85,6.15-.36.31-1.15.68-2.42,1.12-1.24.43-2.9.96-4.93,1.57-4.21,1.23-8.15,2.22-11.71,2.96l-.24.05h0ZM32.88,69.36l.35,1.11c3.48-.73,7.32-1.7,11.42-2.9,2.02-.6,3.67-1.13,4.91-1.56,1.47-.51,2.04-.84,2.25-1.02.4-.32,1.18-1.6,2.69-5.91.66-1.89,1.22-3.39,1.7-4.59.52-1.31,1.16-2.4,1.93-3.24.05-.06.12-.1.17-.14.02-.02.05-.03.07-.05h.02c.98-.84,2.46-1.58,4.53-2.28,1.53-.52,2.94-1.17,4.19-1.94,1.24-.76,2.31-1.67,3.19-2.71,1.82-2.1,3.5-6.93,4.99-14.35l-1.33-.18c-.7,2.03-1.4,3.38-2.14,4.13-.42.42-1.14.96-2.2,1.64-1,.64-2.34,1.43-4.07,2.41-1.66.89-3.05,1.85-4.13,2.85s-1.91,2.03-2.47,3.06l-3.65,6.56c-.76,1.22-1.39,2.2-2.03,3.01-.83,1.03-1.84,2.08-3.02,3.11-1.17,1.03-2.68,2.24-4.6,3.7-4.52,3.43-8.81,6.56-12.75,9.3h-.02Z"/>
      <path class="st0" d="M83.96,70.26l-.63-1.97.16-.12c1.08-.76,2.42-1.74,4.08-2.98,1.61-1.21,3.35-2.57,5.15-4.05,1.85-1.52,3.65-3.05,5.34-4.54,1.72-1.52,3.29-3.01,4.66-4.44,1.36-1.41,2.39-2.68,3.07-3.77.76-1.26,1.38-2.33,1.9-3.25.53-.93,1.01-1.87,1.44-2.78.43-.93.89-1.98,1.34-3.12h0c.43-1.04.93-2.34,1.63-4.21l.08-.2,2.72.38-.06.29c-.49,2.2-1.16,4.7-2,7.43s-1.81,5.46-2.89,8.11c-1.1,2.69-2.28,5.15-3.49,7.32-1.23,2.2-2.49,3.93-3.73,5.13-.36.32-1.09.71-2.23,1.22-1.12.49-2.44,1.01-3.92,1.54-1.49.53-3.05,1.07-4.65,1.6-1.57.52-3.07,1-4.47,1.42-1.37.41-2.46.72-3.24.92l-.25.07h-.01ZM83.97,68.5l.35,1.1c.75-.2,1.74-.49,2.97-.85,1.39-.42,2.89-.89,4.45-1.41,1.59-.53,3.15-1.07,4.64-1.6,1.47-.52,2.78-1.04,3.88-1.53,1.08-.48,1.78-.86,2.08-1.12,1.2-1.16,2.42-2.84,3.63-5,1.21-2.15,2.38-4.59,3.47-7.26,1.07-2.63,2.04-5.35,2.88-8.06.8-2.6,1.45-4.98,1.93-7.1l-1.7-.24c-.66,1.76-1.15,3.01-1.56,4.01h0c-.46,1.15-.92,2.21-1.36,3.15-.43.93-.92,1.87-1.46,2.82-.52.92-1.14,1.99-1.91,3.27-.7,1.12-1.76,2.42-3.14,3.86s-2.96,2.95-4.69,4.47c-1.7,1.5-3.5,3.03-5.36,4.56-1.81,1.49-3.55,2.85-5.17,4.07-1.59,1.18-2.88,2.12-3.93,2.87h0Z"/>
      <path class="st0" d="M109.75,30.07h0c-.34,0-.66-.13-.9-.38l-3.4-3.4c-.5-.5-.5-1.31,0-1.8l3.41-3.41c.5-.49,1.3-.49,1.8,0l3.41,3.41c.24.24.37.56.37.9s-.13.66-.37.9l-3.4,3.4c-.24.24-.56.37-.9.37h-.02ZM109.75,21.26c-.19,0-.38.07-.52.21l-3.41,3.41c-.28.28-.28.75,0,1.03l3.41,3.4c.14.14.32.21.51.21h0c.2,0,.38-.08.52-.22l3.4-3.4c.14-.14.22-.32.22-.52s-.08-.38-.21-.51l-3.41-3.41c-.14-.14-.33-.21-.52-.21h0Z"/>
    </g>
  </g>
</svg>