<?xml version="1.0" encoding="UTF-8"?>
<svg id="Layer_1" xmlns="http://www.w3.org/2000/svg" version="1.1" viewBox="0 0 212.27 53">
  <!-- Generator: Adobe Illustrator 30.4.0, SVG Export Plug-In . SVG Version: 2.1.4 Build 226)  -->
  <defs>
    <style>
      .st0 {
        fill: #fff;
      }
    </style>
  </defs>
  <path class="st0" d="M0,13.32h42.55v12.95H0v-12.95Z"/>
  <path class="st0" d="M169.72,13.32h42.55v12.95h-42.55v-12.95Z"/>
  <path class="st0" d="M0,39.68h42.55v12.95H0v-12.95Z"/>
  <path class="st0" d="M169.72,39.68h42.55v12.95h-42.55v-12.95Z"/>
  <path class="st0" d="M85.1,13.32h42.08v12.95h-42.08v-12.95Z"/>
  <path class="st0" d="M85.1,39.68h42.08v12.95h-42.08v-12.95Z"/>
  <path class="st0" d="M42.55.37h42.55v12.95h-42.55V.37Z"/>
  <path class="st0" d="M42.55,26.27h42.55v13.41h-42.55v-13.41Z"/>
  <path class="st0" d="M127.18.37h42.55v12.95h-42.55V.37Z"/>
  <path class="st0" d="M127.18,26.27h42.55v13.41h-42.55s0-13.41,0-13.41Z"/>
</svg>