<svg width="164" height="91" viewBox="0 0 164 91" fill="none" xmlns="http://www.w3.org/2000/svg">
<path d="M0 57.2275H7.12305C21.0042 70.5022 49.0204 90.4042 79.9209 90.9873C80.417 90.9967 80.9129 91.0013 81.4082 91H0V57.2275ZM164 91H81.4082C96.7601 90.9592 111.724 85.8485 124.637 79.0986C137.726 72.2556 148.791 63.6832 156.133 56.835H164V91ZM82.5791 20.7725C97.3096 20.7725 109.252 32.5413 109.252 47.0586C109.252 61.5759 97.3095 73.3447 82.5791 73.3447C67.8493 73.3444 55.9083 61.5757 55.9082 47.0586C55.9082 32.5416 67.8493 20.7728 82.5791 20.7725ZM164 44.0352H157.404V39.3486H152.363V34.4609H147.512V29.5762H141.692V25.6689H136.65V22.1514H129.086V17.2637H121.521V13.5537H113.567V10.2295H105.229V7.29883H97.2734V5.14941H87.9658L87.9648 3.19629V3H75.2598V4.95605H65.9492V7.10547H57.9971V10.0352H49.6553V13.3574H41.7041V17.0693H34.1387V21.9531H26.5742V25.4736H21.5303V29.3818H15.7119V34.2646H10.8623V39.1523H5.81934V44.4287H0V0H164V44.0352Z" fill="white"/>
</svg>
