<?xml version="1.0" encoding="UTF-8"?>
<svg id="Layer_1" xmlns="http://www.w3.org/2000/svg" version="1.1" viewBox="0 0 47.58 80">
  <!-- Generator: Adobe Illustrator 30.4.0, SVG Export Plug-In . SVG Version: 2.1.4 Build 226)  -->
  <defs>
    <style>
      .st0 {
        fill: #fff;
      }
    </style>
  </defs>
  <g id="X4WScY">
    <path class="st0" d="M19.46,80l-.03-15.25c-.46-.2-.97-.16-1.53-.16H6.94c-.97.06-1.85.14-2.87,0v-8.66h15.39l-.02-8.84c-5.23-1-9.77-3.54-13.29-7.45C-1.39,31.33-2.08,18.66,4.6,9.64c.93-1.26,1.87-2.38,3.02-3.42C11.48,2.71,16.2.53,21.43.02L25.94,0c5.42.45,10.39,2.76,14.32,6.5,1.53,1.45,2.78,3.07,3.88,4.86,5.49,8.94,4.31,20.85-2.89,28.49-3.5,3.79-7.97,6.28-13.11,7.24v8.84l15.31-.03-.02,8.7h-15.27l-.03,15.39h-8.68.01ZM36.1,23.85c0-6.8-5.51-12.31-12.31-12.31s-12.31,5.51-12.31,12.31,5.51,12.31,12.31,12.31,12.31-5.51,12.31-12.31Z"/>
  </g>
</svg>