<?xml version="1.0" encoding="UTF-8"?>
<svg id="Layer_2" data-name="Layer 2" xmlns="http://www.w3.org/2000/svg" viewBox="0 0 75.06 36.58">
  <defs>
    <style>
      .cls-1 {
        fill: #fff;
      }
    </style>
  </defs>
  <g id="Layer_1-2" data-name="Layer 1">
    <g>
      <path class="cls-1" d="M52.47,16.27s-.01.05-.02.07h5.17v-3.01h-6.84l-.2.2c-.18.18-.47.18-.65,0l-.02-.02v2.83h1.47c.03-.07.05-.14.08-.21l1.02.14Z"/>
      <rect class="cls-1" x="37.87" y="13.4" width="7.75" height="9.18"/>
      <path class="cls-1" d="M0,0v36.58h75.06V0H0ZM14.13,20.03c0,.31-.03.56-.12.84-.78,2.29-2.02,4.15-3.41,5.39-.09.06-.16.09-.28.09h-3.1c-.12,0-.19-.03-.28-.09-1.4-1.24-2.64-3.1-3.41-5.39-.09-.28-.12-.53-.12-.84V3.26h1.71v18.6h7.32V3.26h1.71v16.77ZM26.57,23.63c-.07.08-.13.18-.19.27v2.31h-1.09c-.11.31-.23.64-.36.99-.57,1.62-.99,2.55-1.27,2.77-.15.13-.51.3-1.08.5-.57.2-1.32.44-2.26.72-1.94.57-3.74,1.02-5.38,1.36l-.23-.71c1.85-1.28,3.83-2.73,5.94-4.33.87-.66,1.57-1.23,2.11-1.7.54-.47,1-.94,1.37-1.42.2-.25.4-.54.6-.85v-9.59h-7.78v12.25h-1.64V9.77h1.24l.31,2.64h.9c.5-.71,1.55-1.95,2.39-2.57.28-.16.5-.22.81-.22h1.33c.31,0,.53.06.78.28,1.46,1.18,2.36,2.6,3.16,4.74.12.28.16.53.16.84v5.19l.36-.65c.26-.49.65-.97,1.16-1.44s1.15-.92,1.93-1.33c.77-.43,1.4-.8,1.87-1.1.47-.3.8-.55.99-.74.34-.34.67-.99.99-1.95l.85.11c-.7,3.53-1.48,5.79-2.35,6.79-.41.49-.91.92-1.5,1.27-.59.36-1.23.66-1.95.91-.96.32-1.62.67-2.05,1.02-.03.03-.07.05-.1.08ZM34.62,32.49l-1.54,1.54c-.19.19-.49.19-.68,0l-1.46-1.46-1.45,1.45c-.19.19-.51.19-.7,0l-1.52-1.52c-.19-.19-.19-.51,0-.7l1.52-1.52c.19-.19.51-.19.7,0l1.45,1.45,1.46-1.46c.19-.19.49-.19.68,0l1.54,1.54c.19.19.19.49,0,.68ZM35.05,26.2h-4.46v-3.26h4.46v3.26ZM59.85,20.84c0,.12,0,.19-.03.31-.59,2.01-1.46,3.47-3.26,4.93-.25.22-.46.28-.78.28h-3.41c-.31,0-.53-.06-.78-.25-.68-.55-1.25-1.18-1.74-1.91-.4.91-.81,1.77-1.25,2.55-.56,1.01-1.13,1.79-1.7,2.34-.15.13-.48.31-.99.54-.51.23-1.11.46-1.8.71-.69.25-1.4.49-2.14.74-.74.25-1.42.46-2.05.65-.63.19-1.13.33-1.49.43l-.23-.71c.51-.36,1.14-.82,1.88-1.37.74-.56,1.54-1.18,2.38-1.87.84-.69,1.66-1.39,2.46-2.1.33-.29.64-.58.95-.87l-.18-1.42h-.9c-.5.71-1.55,1.77-2.39,2.33-.28.16-.5.22-.81.22h-1.3c-.31,0-.53-.06-.78-.28-1.46-1.21-2.36-2.82-3.16-4.99-.12-.28-.16-.53-.16-.84v-4.53c0-.31.03-.56.12-.84.59-1.92,1.49-3.57,3.19-4.99.25-.19.47-.28.78-.28h1.21c.31,0,.53.06.81.22.84.56,1.89,1.61,2.39,2.33h.9V2.95h1.64v20.93c.55-.59.98-1.12,1.27-1.58.06-.11.12-.2.18-.3-.11-.26-.21-.53-.3-.82-.12-.28-.16-.53-.16-.84v-4.71c0-.31.03-.56.12-.84.22-.71.48-1.37.81-1.99l-.83-.83c-.18-.18-.18-.47,0-.65l1.57-1.57c.18-.18.47-.18.65,0l.55.55c.15-.14.29-.27.45-.4.25-.19.46-.28.78-.28h3.04c.31,0,.53.06.77.25,1.43,1.12,2.29,2.08,2.95,3.69.12.28.15.53.15.84v3.5h-7.19c-.15.57-.33,1.16-.52,1.79-.28.9-.59,1.79-.93,2.67.06.06.11.13.18.19.09.06.16.09.28.09h6.26l1.05-1.86h1.46v.06ZM72.25,15.2h-1.46l-1.05-1.86h-4.81v9.77h3.88v3.1h-8.46v-3.1h2.95v-9.77h-2.95v-3.57h3.19l.31,2.45h.74c.5-.71,1.24-1.74,2.01-2.36.25-.19.47-.25.78-.25h.96c.31,0,.53.06.81.25,1.15.81,2.17,2.17,3.07,4.96.03.12.03.19.03.31v.06Z"/>
      <path class="cls-1" d="M50.61,18.03c.02-.05.03-.12.05-.18l-.86.1.21,1.95c.04-.12.1-.24.14-.36.15-.44.3-.95.46-1.5Z"/>
    </g>
  </g>
</svg>