<?xml version="1.0" encoding="UTF-8"?>
<svg id="Layer_1" data-name="Layer 1" xmlns="http://www.w3.org/2000/svg" viewBox="0 0 257.14 186">
  <defs>
    <style>
      .cls-1 {
        fill: #fff;
      }
    </style>
  </defs>
  <g id="ImjkYP.tif">
    <path class="cls-1" d="M82.58,0c4.24.68,9.86,1.48,13.87,3.44l4.54,2.22c-15.2.49-30.42,4.15-43.07,12.48-11.81,7.77-20.16,19.63-23.33,33.43-2.04,8.9-2.5,17.51-2.44,26.63l2.41.64,9.01.05,3.26,2.14c1.04-3.6,3.12-6.34,5.87-8.55,1.12-.9,2.14-1.71,3.06-2.93l-3.33.2-2.13.64.51-3.48c.42-2.85,1.82-5.17,4.01-7.14-1.8-.38-3.19-.01-4.84.04,1.83-2.71,2.92-5.5,3.93-8.47l1.68-4.95c1.17-3.42,3.5-6.12,6.56-8.13-1.2-2.22-1.27-4.58-.38-6.81l1.78-4.44c.63-1.56.24-3.3.25-5.01l3.46.78c3.08.69,5.54,2.37,7.62,4.77.52-2.42,1.99-3.75,3.7-4.79,1.2,1.31,1.73,2.85,2.84,4.33.8-2.06,2.09-4.33,4.05-5.47,2.11.83,3.4,3.33,4.06,5.61,1.14-1.52,1.71-3.15,2.95-4.51,1.73,1.17,3.21,2.43,3.63,4.76,2.75-3.6,6.68-4.48,11.19-5.51-.12,1.39-.36,2.87,0,4.32l1.36,3.37,2.75-1.9,16.82,24.4-19.57-43.31,8.45-3.59,17.77,43.05c.1.42.45.33.4-.08l-6.07-26.94,8.38-1.42,5.44,28.06-.78-47.94h9.24s-.78,47.77-.78,47.77l5.46-27.86,8.37,1.44-5.87,25.86c-.17.55-.3,1.09.02,1.47l18.01-43.44,8.39,3.72-19.6,43.25,16.86-24.38,6.96,4.88-17.38,23.96,18.05-17.19c-1.52-7.95,2.07-15.9,8.82-20.07,4.79-2.96,10.55-3.16,15.57-.68,2.67,1.28,4.83,3.04,6.87,5.19l8,8.43c1.56,1.64,3.75,2.41,5.87,1.96,2.78-.6,4.34-2.83,4.07-5.57-.22-2.24-1.43-3.86-3.68-4.53-2.72-.81-5.61-.83-8.45-.62.56-3.42,2.9-5.97,6.06-7.05s6.46-.4,8.87,2.09c3.06-4.72,8.78-4.61,13.02-1.19,1.03.87,1.78,1.97,2.14,3.1-4.54.59-9.57,1.68-10.12,6.36l-.5,4.26c-1.2,6.96-7.47,11.52-14.45,10.58-2.62-.35-4.87-1.39-6.92-3.07l-4.87-4.76c-3.76-3.67-7.69-9.55-13.24-9.23l5.36,5.89-13.01,11.69c1.12,1.68,2.56,3.03,4.26,4.08l7.58,4.68,7.62,4.13,9.24-3.43,2.98,8.77-1.99.75c2.84,2.22,5.39,4.69,7.19,7.95,2.45,4.44,3.04,9.5,2.02,14.48s-3.71,8.8-7.81,11.43c-5.12,3.29-11.32,4.17-17.65,4.2,3.1,3.22,4.81,7.1,5.16,11.48l.64,7.99c.31,3.95,2.25,7.2,5.38,9.57l4.69,2.84c.54,1.55.55,3.44,1.43,4.84,1.13,1.79,1.49,3.63,1.31,5.73-.22,2.65,0,5.21.82,7.86l-3.52-1.12c1.11,2.11,1.74,4.06,1.5,6.35.23.16.07.41-.15.3l-3.22-.96c1.38,2.31,1.96,4.64,1.73,7.42l-4.4-1.71-2.49,5.88c-1.01,2.37-2.6,4.21-4.48,6.24l20.94.05-.05,13.94H19.08s-.05-13.95-.05-13.95h16.63c-.55-1.71-.61-3.39.21-4.88,3.03-5.52,8.62-8.81,14.91-9.16,4.39-.24,8.58.44,12.94,1.43,1.44-2,2.44-4.05,3.42-6.22l2.48-5.54c1.18-2.64,3.02-4.79,5.52-6.54-1.11-.98-2.09-1.9-2.91-3.11-2.36-3.5-5.3-6.37-8.89-8.59l-6.84-4.23c-4.05-2.5-7.43-5.66-10.25-9.59-6.94,2.04-12.81,3.5-19.34-.03-3.26.51-8.7.11-10.58-2.03-1.23-1.41-1.05-3.37-.15-4.97-1.4-1.88-1.16-3.44.07-5.48-1.34-1.53-1.37-3.58-.08-5.23-1.3-1.05-1.76-2.54-1.4-4.14.29-1.3,1.19-2.21,2.28-2.98l-.06-3.73-2.33-.63-9.17-.05-4.64-3.17c-.3-.2-.53-.38-.85-.35v-.4c.29-.02.53-.19.81-.38l4.66-3.18,9.17-.06,2.41-.66c.02-10.61.35-21.11,2.97-31.41,1.46-5.73,3.64-10.98,6.63-16.05C36.83,13.41,51.61,2.96,71.65.36L73.94,0h8.64ZM204.63,25.13c-3.1.79-5.7,3.27-6.67,6.42l6.67-6.42ZM196.42,50.44l-2.8-2.99-16.11,14.53.23.24,18.67-11.78ZM121.45,56.47c.17-.11.21-.28.08-.45l-5.79-7.76c0,1.5.73,2.51,1.05,3.75l4.66,4.47ZM209.47,58.67l-5.47-3.01-22.61,13.22c.15.05.29.07.39.14l27.7-10.35ZM210.94,89.05c4.59,1.47,9.36,1.41,13.77-.24,3.45-1.29,5.51-4.19,6.02-7.77,1.16-8.16-4.2-12.78-10.75-16.86l-36.07,12.22,33.61-4.96,1.38,8.58-24.51,2.95,9.08,3.38,7.47,2.71ZM37.72,91.08l4.37,1.76c2.61.85,5.2,1.4,7.92,1.93.73-2.11,1.55-3.95,2.59-5.88-.64-2.08-.12-4,.61-6.07-1.86.56-3.45.75-5.18.52l-4.46,3.03-9.2.06-2.07.61v2.48c1.93.26,3.61.84,5.42,1.57ZM165.8,172.01l11.26.03c-.61-1.73-.59-3.4.24-4.9,2.91-5.25,8.17-8.35,14.17-8.89,4.56-.41,8.95.18,13.57,1.18.69-1.28.69-2.74.58-4.21l-.82-5.41c-.39-2.56-.14-5.07,1.02-7.51-11.27-2.78-17.74-10.75-22.41-20.75-1.79-3.83-5.68-5.65-9.74-4.46-2.37.7-4.47,1.91-6.38,3.51,1.54,5.15,5.16,8.42,9.99,10.46.45,1.66.6,3.42,1.46,4.91.99,1.71,1.55,3.37,1.35,5.37-.27,2.76-.08,5.47.68,8.29l-3.46-1.12c1.29,2.2,1.73,4.38,1.54,6.7l-3.37-1.03c1.43,2.41,1.98,4.88,1.74,7.51l-4.47-1.83c-1.65,4.59-3.42,8.62-6.96,12.14ZM84.23,161.05l-4.63,6.49-4.18,4.51h50.27c-.52-1.67-.61-3.26.16-4.7,2.91-5.53,8.35-8.86,14.6-9.29,4.51-.31,8.81.39,13.28,1.37.64-1.39.73-2.8.52-4.23l-.83-5.6c-.29-2.51-.08-4.92,1-7.25-5.7-1.28-10.52-4.35-13.9-8.91-6.53,1.77-12.93,2.92-19.54,3.83-4.23.59-8.25,1.01-12.48,1.12-1.11,1.8-1.18,3.71-1.04,5.65-2.07.49-4.06.18-5.81-1.16-.56,2.89-1.52,5.37-2.97,7.75-.94,1.54-1.59,3.12-2.11,4.8l-2.42-2.53c-.07,2.6-.92,4.67-2.25,6.57l-2.48-2.56c.03,2.95-.92,5.41-2.51,7.47l-2.66-3.32Z"/>
  </g>
</svg>