<svg width="209" height="194" viewBox="0 0 209 194" fill="none" xmlns="http://www.w3.org/2000/svg">
<path fill-rule="evenodd" clip-rule="evenodd" d="M-9.42111e-07 5.38825C9.20944 2.57124 29.1889 -2.21774 35.4297 1.16267C43.232 5.38921 101.087 46.0184 106.937 52.8443C112.788 59.6701 120.914 70.3961 121.564 76.5719L136.576 63.4762C132.232 57.115 129.69 49.4252 129.69 41.1412C129.691 19.2409 147.444 1.48717 169.345 1.48691C191.245 1.48691 209 19.2408 209 41.1412C209 63.0419 191.245 80.7965 169.345 80.7965C161.532 80.7964 154.249 78.5361 148.109 74.6353L127.74 92.4986L127.09 99.9752L146.746 118.42C153.158 113.966 160.946 111.352 169.345 111.352C191.245 111.352 209 129.106 209 151.006C209 172.907 191.245 190.662 169.345 190.662C147.444 190.661 129.69 172.907 129.69 151.006C129.69 142.909 132.12 135.379 136.286 129.103L120.914 114.601C120.806 119.043 119.224 129.423 113.764 135.404C106.938 142.88 46.8055 189.035 38.3545 192.286C31.5936 194.886 12.3512 190.769 3.57516 188.385L100.437 97.3746L-9.42111e-07 5.38825ZM169.02 133.455C159.147 133.455 151.143 141.458 151.143 151.332C151.143 161.205 159.147 169.209 169.02 169.209C178.894 169.208 186.897 161.205 186.897 151.332C186.897 141.459 178.893 133.455 169.02 133.455ZM169.021 23.5894C159.147 23.5895 151.143 31.5934 151.143 41.4664C151.143 51.3396 159.147 59.3443 169.02 59.3443C178.894 59.3441 186.897 51.3395 186.897 41.4664C186.897 31.5935 178.893 23.5897 169.021 23.5894Z" fill="white"/>
</svg>
