<svg width="78" height="78" viewBox="0 0 78 78" fill="none" xmlns="http://www.w3.org/2000/svg">
<path d="M77.2693 35.6362H71.3247V41.5762H77.2693V35.6362Z" fill="white"/>
<path d="M71.324 29.6965H65.3794V35.6366L71.3247 35.6362L71.324 29.6965Z" fill="white"/>
<path d="M65.3809 47.5127H59.4363V53.4527H65.3809V47.5127Z" fill="white"/>
<path d="M65.3809 23.7564H59.4363V29.6964H65.3809V23.7564Z" fill="white"/>
<path d="M59.4363 53.4527L53.4944 53.4529V59.3929H59.4353L59.4363 53.4527Z" fill="white"/>
<path d="M59.4353 17.82H53.4944V23.7564L59.4363 23.7564L59.4353 17.82Z" fill="white"/>
<path d="M53.4944 59.3929L47.549 59.3931V65.3331H53.4936L53.4944 59.3929Z" fill="white"/>
<path d="M53.4936 35.6362H47.549V41.5762H53.4936V35.6362Z" fill="white"/>
<path d="M53.4936 11.8799H47.549V17.8199L53.4944 17.82L53.4936 11.8799Z" fill="white"/>
<path d="M47.5505 65.3328H41.606V71.2692H47.5505V65.3328Z" fill="white"/>
<path d="M47.5505 41.5764H41.606V47.5128H47.5505V41.5764Z" fill="white"/>
<path d="M47.5505 5.94017H41.606V11.8802H47.5505V5.94017Z" fill="white"/>
<path d="M41.606 71.2692L35.6606 71.2696V77.2096H41.6052L41.606 71.2692Z" fill="white"/>
<path d="M41.606 47.5128L35.6606 47.5127V53.4527H41.6052L41.606 47.5128Z" fill="white"/>
<path d="M41.6052 23.7564H35.6606V29.6964H41.6052V23.7564Z" fill="white"/>
<path d="M41.6052 0H35.6606V5.94001L41.606 5.94017L41.6052 0Z" fill="white"/>
<path d="M35.6598 65.3328H29.7188V71.2692L35.6606 71.2696L35.6598 65.3328Z" fill="white"/>
<path d="M35.6606 53.4527L29.7188 53.4529V59.3929H35.6598L35.6606 53.4527Z" fill="white"/>
<path d="M35.6606 29.6964L29.7188 29.6965V35.6366H35.6598L35.6606 29.6964Z" fill="white"/>
<path d="M35.6598 17.82H29.7188V23.7564L35.6606 23.7564L35.6598 17.82Z" fill="white"/>
<path d="M29.7202 59.3931H23.7756V65.3331H29.7202V59.3931Z" fill="white"/>
<path d="M29.7202 35.6362H23.7756V41.5762H29.7202V35.6362Z" fill="white"/>
<path d="M29.7202 11.8799H23.7756V17.8199H29.7202V11.8799Z" fill="white"/>
<path d="M23.775 53.4529H17.8304V59.3929L23.7756 59.3931L23.775 53.4529Z" fill="white"/>
<path d="M23.7756 41.5762L17.8304 41.5764V47.5128H23.775L23.7756 41.5762Z" fill="white"/>
<path d="M23.775 29.6965H17.8304V35.6366L23.7756 35.6362L23.775 29.6965Z" fill="white"/>
<path d="M17.8304 47.5128L11.8849 47.5127V53.4527L17.8304 53.4529V47.5128Z" fill="white"/>
<path d="M17.8295 23.7564H11.8849V29.6964L17.8304 29.6965L17.8295 23.7564Z" fill="white"/>
<path d="M11.8864 41.5764H5.94185V47.5128H11.8864V41.5764Z" fill="white"/>
<path d="M11.8864 29.6965H5.94185V35.6366H11.8864V29.6965Z" fill="white"/>
<path d="M5.94185 35.6366L0 35.6362V41.5762L5.94185 41.5764V35.6366Z" fill="white"/>
</svg>
