<svg width="221" height="198" viewBox="0 0 221 198" fill="none" xmlns="http://www.w3.org/2000/svg">
<path d="M65.9636 117.371L65.6569 143.146L91.4888 142.838L106.212 157.528L110.161 161.57L110.211 161.518L110.553 161.86L0 198L47.7781 99.2261L65.9636 117.371Z" fill="white"/>
<path d="M221 197.743L110.447 161.604L129.248 142.844L154.664 143.146L154.362 117.786L173.222 98.9696L221 197.743Z" fill="white"/>
<path d="M173.222 98.7739L154.358 79.9521L154.664 54.1908L128.845 54.4973L113.552 39.2395L110.505 36.1203L221 0L173.222 98.7739Z" fill="white"/>
<path d="M109.789 36.1464L91.8554 54.5028L65.6569 54.1908L65.9691 80.374L47.4801 98.4151L0 0.256581L109.789 36.1464Z" fill="white"/>
</svg>
