<svg width="278" height="278" viewBox="0 0 278 278" fill="none" xmlns="http://www.w3.org/2000/svg">
<path d="M6.31538 0.110408C15.7556 -0.982924 30.9243 8.574 38.4468 14.0121C65.652 33.6791 91.0446 59.1175 109.372 87.3212C113.092 93.468 116.936 100.134 118.378 107.243C119.379 112.179 118.187 117.656 112.477 118.517C105.68 119.685 96.3095 114.655 90.577 111.323C63.0137 95.303 29.9224 62.1876 12.1676 35.7146C7.65023 28.9793 2.83463 21.3235 0.7735 13.389C-0.028662 10.3005 -0.596743 6.36731 1.15178 3.47954C2.37947 1.45186 4.09919 0.658934 6.31538 0.110408Z" fill="white"/>
<path d="M108.523 159.468C122.084 157.592 119.234 171.755 115.461 179.471C111.953 186.643 108.407 192.555 103.752 199.074C96.8608 208.554 89.3937 217.599 81.3924 226.161C66.1235 242.468 31.6465 274.297 10.1414 277.876C7.58836 278.163 4.93232 278.06 2.83498 276.388C1.15345 275.046 0.290054 273.284 0.0686485 271.162C-1.21369 258.881 15.8004 236.548 23.4085 227.21C36.5393 210.953 51.342 196.122 67.5727 182.96C76.9228 175.38 96.3941 160.708 108.523 159.468Z" fill="white"/>
<path d="M268.116 0.0837023C270.619 -0.160038 273.268 0.0586451 275.307 1.68411C276.962 3.00254 277.703 4.89236 277.918 6.93796C279.227 19.3934 261.608 42.26 253.697 51.8819C240.841 67.6613 226.397 82.0768 210.593 94.9008C201.347 102.407 181.527 117.351 169.598 118.512C155.783 120.522 158.814 106.074 162.634 98.3212C166.231 91.0204 169.868 85.0106 174.636 78.3833C181.414 69.1225 188.736 60.2736 196.565 51.884C211.888 35.512 246.38 3.61006 268.116 0.0837023Z" fill="white"/>
<path d="M165.469 159.48C172.798 158.634 180.707 162.819 186.884 166.362C214.308 182.089 247.252 215.072 265.082 241.176C269.872 248.191 274.983 256.178 277.192 264.475C278.019 267.583 278.616 271.551 276.88 274.473C275.701 276.459 273.989 277.31 271.821 277.858C262.782 279.045 248.337 270.19 241.058 265.027C213.289 245.328 187.402 219.441 168.763 190.892C165.007 184.725 161.189 178.09 159.66 170.968C158.595 166.001 159.724 160.399 165.469 159.48Z" fill="white"/>
<path d="M138.174 219.932C149.085 219.476 158.303 227.939 158.781 238.85C159.258 249.76 150.813 258.996 139.906 259.495C128.968 259.995 119.7 251.521 119.221 240.58C118.742 229.64 127.234 220.388 138.174 219.932Z" fill="white"/>
<path d="M137.081 18.576C147.97 17.5158 157.655 25.4878 158.707 36.378C159.76 47.2681 151.783 56.9482 140.894 57.9941C130.014 59.039 120.345 51.0696 119.293 40.1896C118.241 29.3097 126.204 19.6351 137.081 18.576Z" fill="white"/>
<path d="M36.2535 119.304C47.1339 118.175 56.8682 126.084 57.991 136.967C59.1139 147.85 51.1994 157.58 40.3176 158.698C29.4447 159.812 19.7248 151.905 18.603 141.032C17.4811 130.158 25.3819 120.432 36.2535 119.304Z" fill="white"/>
<path d="M237.698 119.3C248.591 118.191 258.314 126.133 259.404 137.029C260.494 147.924 252.535 157.636 241.639 158.706C230.771 159.773 221.09 151.837 220.004 140.97C218.917 130.102 226.834 120.407 237.698 119.3Z" fill="white"/>
<path d="M138.151 128.07C144.183 127.596 149.458 132.097 149.942 138.129C150.426 144.16 145.934 149.445 139.904 149.938C133.86 150.434 128.561 145.929 128.077 139.883C127.591 133.837 132.105 128.545 138.151 128.07Z" fill="white"/>
<path d="M138.364 132.655C141.867 132.302 144.993 134.857 145.345 138.36C145.697 141.864 143.142 144.99 139.64 145.342C136.137 145.694 133.012 143.14 132.66 139.637C132.308 136.134 134.861 133.008 138.364 132.655Z" fill="white"/>
<path d="M143.86 112.214C146.591 111.873 149.291 113.39 149.999 116.126C150.204 116.952 150.183 117.818 149.936 118.633C149.475 120.161 145.998 125.757 145.021 127.403C144.95 127.601 144.833 127.731 144.708 127.913C144.272 127.992 141.001 126.944 139.579 126.785C139.582 123.998 138.981 116.993 140.225 114.793C141.055 113.326 142.319 112.686 143.86 112.214Z" fill="white"/>
<path d="M132.217 112.215C133.886 112.029 135.625 112.372 136.862 113.585C137.559 114.267 138.044 115.134 138.263 116.083C138.597 117.484 138.431 124.814 138.423 126.791C136.446 126.971 135.62 127.288 133.72 127.978C133.47 128.005 133.527 127.979 133.257 127.872C131.522 125.151 129.504 121.672 128.126 118.758C126.754 115.851 129.392 113.123 132.217 112.215Z" fill="white"/>
<path d="M144.293 150.016C144.537 149.993 144.482 150.019 144.746 150.129C146.293 152.575 147.627 155.173 149.12 157.629C151.406 161.389 149.78 164.702 145.473 165.843C143.895 165.912 142.313 165.543 141.144 164.412C140.443 163.736 139.954 162.868 139.738 161.916C139.399 160.474 139.567 153.161 139.577 151.216C141.567 151.036 142.402 150.711 144.293 150.016Z" fill="white"/>
<path d="M133.287 149.895C135.328 150.618 136.252 150.997 138.423 151.218C138.407 153.294 138.644 160.405 138.268 161.954C138.087 162.703 137.735 163.401 137.239 163.993C136.105 165.346 134.713 165.734 133.057 165.886C131.127 165.673 128.931 164.551 128.217 162.646C127.853 161.673 127.786 160.614 128.023 159.605C128.489 157.667 132.148 152.348 133.21 150.065L133.287 149.895Z" fill="white"/>
<path d="M151.212 139.608C153.108 139.594 160.782 139.398 162.203 139.764C163.028 139.981 163.78 140.411 164.386 141.011C166.754 143.373 166.111 146.772 163.834 148.927C159.049 152.052 154.543 146.92 150.041 144.788L149.857 144.702C150.649 142.63 150.958 141.79 151.212 139.608Z" fill="white"/>
<path d="M153.617 117.979C160.647 117.189 162.593 125.968 156.018 128.565C155.115 128.922 152.022 130.829 151.151 131.417C150.552 131.622 149.887 132.08 149.333 132.421C148.305 130.969 147.029 129.71 145.562 128.703C147.503 125.682 149.35 121.266 151.773 118.773C152.074 118.464 153.154 118.129 153.617 117.979Z" fill="white"/>
<path d="M149.286 145.704C150.316 145.8 154.85 149.027 156.162 149.532C160.995 151.394 161.591 157.728 156.494 159.793C155.414 160.087 154.509 160.241 153.386 159.944C152.553 159.724 151.796 159.279 151.195 158.66C150.139 157.58 146.668 151.137 145.625 149.353C147.233 148.074 147.98 147.294 149.286 145.704Z" fill="white"/>
<path d="M116.22 128.019C116.786 127.943 117.736 127.811 118.25 127.977C121.548 129.04 124.814 131.717 127.944 133.203L128.125 133.288C127.372 135.31 127.004 136.235 126.785 138.402H123.939C120.223 138.38 114.32 139.522 112.593 135.522C112.027 134.193 112.011 132.693 112.547 131.352C113.314 129.469 114.483 128.739 116.22 128.019Z" fill="white"/>
<path d="M122.235 117.986C123.743 117.8 125.822 118.03 126.805 119.34C128.923 122.165 130.578 125.566 132.377 128.645C130.974 129.729 129.857 130.957 128.686 132.28L128.391 132.283C124.714 129.492 115.425 127.41 118.541 120.817C119.315 119.178 120.589 118.514 122.235 117.986Z" fill="white"/>
<path d="M115.494 139.678C116.686 139.483 125.048 139.593 126.783 139.597C126.984 141.728 127.401 142.72 128.112 144.723C126.898 145.234 124.082 147.006 122.755 147.726C122.016 148.194 121.158 148.639 120.446 149.116C117.866 150.84 114.523 150.243 112.923 147.454C112.179 146.185 111.983 144.669 112.38 143.252C112.893 141.453 113.95 140.543 115.494 139.678Z" fill="white"/>
<path d="M128.423 145.714L128.731 145.756C129.805 147.022 131.043 148.394 132.434 149.304C129.585 153.519 127.95 160.907 122.029 159.955C118.157 158.661 116.332 153.917 119.506 151.094C121.716 149.126 125.777 147.399 128.423 145.714Z" fill="white"/>
<path d="M159.171 128.02C159.539 127.96 159.91 127.921 160.284 127.902C161.721 127.829 163.136 128.423 164.163 129.418C165.232 130.446 165.841 131.861 165.852 133.344C165.854 135.286 164.779 137.21 163.016 137.974C161.332 138.703 158.376 138.424 156.532 138.402H151.205C150.965 136.168 150.632 135.386 149.842 133.298C151.875 132.435 156.861 129.243 159.171 128.02Z" fill="white"/>
</svg>
