<svg width="193" height="192" viewBox="0 0 193 192" fill="none" xmlns="http://www.w3.org/2000/svg">
<path d="M35.1114 191.075L25.6285 165.447L0.00142712 155.965L25.6285 146.482L35.9265 120.866L44.5942 146.482L70.2213 155.965L44.5942 165.447L35.1114 191.075Z" fill="white"/>
<path d="M155.963 6.50332e-06L165.446 25.6271L191.073 35.11L165.446 44.5928L155.963 70.2199L146.48 44.5928L120.853 35.1099L146.48 25.6271L155.963 6.50332e-06Z" fill="white"/>
<path d="M155.965 191.075L146.482 165.447L120.853 156.781L146.482 146.482L155.965 121.355L165.447 146.482L191.075 155.965L165.447 165.447L155.965 191.075Z" fill="white"/>
<path d="M35.11 1.11968e-05L44.5928 25.6271L70.2199 35.11L44.5928 44.5928L35.1099 70.2199L25.6271 44.5928L2.9317e-07 35.1099L25.6271 25.6271L35.11 1.11968e-05Z" fill="white"/>
<path d="M118.63 191.075L120.853 156.781C109.735 162.585 108.039 162.585 95.5 162.585L118.63 191.075Z" fill="white"/>
<path d="M120.853 156.781L120.855 121C110.431 127.08 107.255 126.922 95.5 126.922L120.853 156.781Z" fill="white"/>
<path d="M35.9265 120.866L69.286 121.797C63.2062 111.373 63.2062 106.494 63.2062 94.7381L35.9265 120.866Z" fill="white"/>
<path d="M155.963 70.2199L123 67.5C129.08 77.9235 127.5 89 126.054 94.7381L155.963 70.2199Z" fill="white"/>
<path d="M70.2199 35.11L69.286 67.9142C79.7096 62.1107 83.5 64 95.1522 65.0804L70.2199 35.11Z" fill="white"/>
<path d="M1.14159e-05 118.643L35.9265 120.866C29.8466 109.748 29.8466 107.277 29.8466 94.7381L1.14159e-05 118.643Z" fill="white"/>
<path d="M192.703 72.4616L155.963 70.2199C162.043 81.3383 162.857 83.4609 162.857 96L192.703 72.4616Z" fill="white"/>
<path d="M72.445 1.15857e-05L70.2199 35.11C81.3383 29.0301 83.8105 29.8466 96.3496 29.8466L72.445 1.15857e-05Z" fill="white"/>
<path d="M72.445 191.075L70.2213 155.965C81.3398 161.768 82.9609 162.585 95.5 162.585L72.445 191.075Z" fill="white"/>
<path d="M70.2213 155.965L69.286 121.797C79.7096 127.876 83.7446 126.922 95.5 126.922L70.2213 155.965Z" fill="white"/>
<path d="M35.1099 70.2199L69.286 67.9142C63.2062 78.3377 63.2062 82.9827 63.2062 94.7381L35.1099 70.2199Z" fill="white"/>
<path d="M155.965 121.355L120.855 121C126.935 110.576 126.054 106.494 126.054 94.7381L155.965 121.355Z" fill="white"/>
<path d="M120.853 35.1099L123 67.5C112.446 63.2331 107 64 95.1522 65.0804L120.853 35.1099Z" fill="white"/>
<path d="M0 72.4616L35.1099 70.2199C29.0301 81.3383 29.8466 82.199 29.8466 94.7381L0 72.4616Z" fill="white"/>
<path d="M192.703 119.207L155.965 121.355C162.044 110.561 162.857 108.173 162.857 96L192.703 119.207Z" fill="white"/>
<path d="M118.769 0L120.853 35.1099C110.43 29.0301 108.113 29.8466 96.3579 29.8466L118.769 0Z" fill="white"/>
<path d="M95.1522 65.0804L103.638 88.0132L126.054 94.7381L103.638 104.985L95.5 126.922L86.6663 104.985L63.2062 94.7381L86.6663 88.0132L95.1522 65.0804Z" fill="white"/>
</svg>
