<svg width="94" height="69" viewBox="0 0 94 69" fill="none" xmlns="http://www.w3.org/2000/svg">
<path d="M93.9999 18.8175H87.736V25.0913H93.9999V18.8175Z" fill="white"/>
<path d="M93.9999 0H87.736V6.27376H93.9999V0Z" fill="white"/>
<path d="M87.7348 18.8175H81.4672V25.0913H87.7348V18.8175Z" fill="white"/>
<path d="M81.4691 62.7262H75.2014V69H81.4691V62.7262Z" fill="white"/>
<path d="M81.4691 50.1826H75.2014V56.4563H81.4691V50.1826Z" fill="white"/>
<path d="M81.4691 43.9088H75.2014V50.1826H81.4691V43.9088Z" fill="white"/>
<path d="M81.4691 37.635H75.2014V43.9088H81.4691V37.635Z" fill="white"/>
<path d="M81.4691 31.365H75.2014V37.635H81.4691V31.365Z" fill="white"/>
<path d="M81.4691 25.0912H75.2014V31.365H81.4691V25.0912Z" fill="white"/>
<path d="M81.4691 18.8175H75.2014V25.0912H81.4691V18.8175Z" fill="white"/>
<path d="M81.4691 12.5438H75.2014V18.8175H81.4691V12.5438Z" fill="white"/>
<path d="M81.4691 0H75.2014V6.27376H81.4691V0Z" fill="white"/>
<path d="M75.2002 43.9088H68.9326V50.1826H75.2002V43.9088Z" fill="white"/>
<path d="M68.9328 62.7262H62.6689V69H68.9328V62.7262Z" fill="white"/>
<path d="M68.9326 43.9088H62.6689V50.1826H68.9326V43.9088Z" fill="white"/>
<path d="M68.9328 25.0912H62.6689V31.365H68.9328V25.0912Z" fill="white"/>
<path d="M68.9328 12.5438H62.6689V18.8175H68.9328V12.5438Z" fill="white"/>
<path d="M68.9328 0H62.6689V6.27376H68.9328V0Z" fill="white"/>
<path d="M62.6699 56.4563H56.4022V62.7262L62.6689 62.7262L62.6699 56.4563Z" fill="white"/>
<path d="M62.6689 31.365L56.4022 31.365V37.635H62.6699L62.6689 31.365Z" fill="white"/>
<path d="M56.401 50.1826H50.1333V56.4563H56.401V50.1826Z" fill="white"/>
<path d="M56.401 37.635H50.1333V43.9087H56.401V37.635Z" fill="white"/>
<path d="M56.401 18.8175H50.1333V25.0913H56.401V18.8175Z" fill="white"/>
<path d="M56.401 12.5438H50.1333V18.8175H56.401V12.5438Z" fill="white"/>
<path d="M56.401 0H50.1333V6.27376H56.401V0Z" fill="white"/>
<path d="M50.1333 43.9087L43.8655 43.9088V50.1826L50.1333 50.1826V43.9087Z" fill="white"/>
<path d="M50.1333 25.0913L43.8655 25.0912V31.365H50.1331L50.1333 25.0913Z" fill="white"/>
<path d="M50.1333 12.5438H43.8655V18.8175H50.1333V12.5438Z" fill="white"/>
<path d="M43.8655 50.1826L37.6008 50.1826V56.4563H43.8647L43.8655 50.1826Z" fill="white"/>
<path d="M43.8647 37.635H37.6008V43.9087L43.8655 43.9088L43.8647 37.635Z" fill="white"/>
<path d="M43.8655 18.8175H37.6008V25.0913L43.8655 25.0912V18.8175Z" fill="white"/>
<path d="M43.8655 12.5438H37.6008V18.8175H43.8655V12.5438Z" fill="white"/>
<path d="M43.8647 0H37.6008V6.27376H43.8647V0Z" fill="white"/>
<path d="M37.6008 56.4563L31.334 56.4563V62.7262H37.6017L37.6008 56.4563Z" fill="white"/>
<path d="M37.6017 31.365H31.334V37.635L37.6008 37.635L37.6017 31.365Z" fill="white"/>
<path d="M31.336 62.7262H25.0683V69H31.336V62.7262Z" fill="white"/>
<path d="M31.336 43.9088H25.0683V50.1826H31.336V43.9088Z" fill="white"/>
<path d="M31.336 25.0912H25.0683V31.365H31.336V25.0912Z" fill="white"/>
<path d="M31.336 12.5438H25.0683V18.8175H31.336V12.5438Z" fill="white"/>
<path d="M31.336 0H25.0683V6.27376H31.336V0Z" fill="white"/>
<path d="M25.0671 43.9088H18.7994V50.1826H25.0671V43.9088Z" fill="white"/>
<path d="M18.7993 62.7262H12.5316V69H18.7993V62.7262Z" fill="white"/>
<path d="M18.7994 50.1826L12.5316 50.1826V56.4563H18.7993L18.7994 50.1826Z" fill="white"/>
<path d="M18.7994 43.9088H12.5316V50.1826L18.7994 50.1826V43.9088Z" fill="white"/>
<path d="M18.7993 37.635H12.5316V43.9088H18.7994L18.7993 37.635Z" fill="white"/>
<path d="M18.7993 31.365H12.5316V37.635H18.7993V31.365Z" fill="white"/>
<path d="M18.7993 25.0912H12.5316V31.365H18.7993V25.0912Z" fill="white"/>
<path d="M18.7993 18.8175H12.5316V25.0912H18.7993V18.8175Z" fill="white"/>
<path d="M18.7993 12.5438H12.5316V18.8175H18.7993V12.5438Z" fill="white"/>
<path d="M18.7993 0H12.5316V6.27376H18.7993V0Z" fill="white"/>
<path d="M12.5316 18.8175H6.26693V25.0913L12.5316 25.0912V18.8175Z" fill="white"/>
<path d="M6.26693 18.8175H0.000154789V25.0913H6.26693V18.8175Z" fill="white"/>
<path d="M6.26768 1.35451e-05H0V6.27378H6.26768V1.35451e-05Z" fill="white"/>
</svg>
