<svg width="207" height="93" viewBox="0 0 207 93" fill="none" xmlns="http://www.w3.org/2000/svg">
<path d="M56.7334 25.9209C57.6654 25.9209 58.3265 26.1016 59.0781 26.7617C63.4677 30.3029 66.1739 34.5643 68.5791 40.9863C68.9398 41.8265 69.0605 42.5766 69.0605 43.5068V63.6387L74.0928 54.6094C74.8827 53.1243 76.0647 51.6732 77.6045 50.2568C79.1471 48.8379 81.1114 47.4813 83.4336 46.2471C85.7462 44.9579 87.6374 43.8492 89.0469 42.9512C90.4596 42.021 91.4411 41.3068 92.002 40.7471C93.0019 39.7487 93.9871 37.8224 94.9482 34.9443L94.9814 34.8467L95.083 34.8604L97.6387 35.1904L97.7715 35.207L97.7451 35.3389C96.6923 40.6382 95.5782 44.9886 94.3994 48.3906C93.2221 51.7883 91.9751 54.2507 90.6523 55.7695L90.6533 55.7705C89.4106 57.253 87.8658 58.5226 86.1133 59.6084C84.3606 60.6942 82.3972 61.5979 80.2256 62.3506L80.2246 62.3516C77.3446 63.3098 75.3473 64.3239 74.1025 65.3887L74.0801 65.4121C74.0266 65.4655 73.965 65.5096 73.9141 65.5459C73.8609 65.5838 73.8164 65.6148 73.7803 65.6504C72.7715 66.7768 71.9081 68.2329 71.2217 69.9902L71.2207 69.9922C70.5001 71.7904 69.7191 73.8895 68.8779 76.3184C68.0356 78.7504 67.2897 80.6604 66.6484 82.0498C66.3279 82.7442 66.032 83.3115 65.7627 83.749C65.496 84.1822 65.2492 84.4973 65.0234 84.6836C64.7689 84.9059 64.3647 85.1381 63.8213 85.3867C63.2755 85.6364 62.5793 85.9075 61.7363 86.208C60.0496 86.8093 57.7619 87.5308 54.9355 88.3711H54.9346C49.0993 90.0824 43.6841 91.434 38.75 92.4551L38.6406 92.4775L38.6055 92.3711L37.9141 90.2402L37.8857 90.1514L37.9619 90.0986C43.5219 86.2588 49.4738 81.9081 55.8164 77.1074C58.43 75.1283 60.5334 73.4199 62.1543 72.0117C62.8552 71.378 63.5138 70.7491 64.1299 70.125V38.9453H40.7383V75.707H35.8076V26.3711H39.4756L40.4082 34.2939H43.1133C44.6165 32.1633 47.7743 28.4417 50.2998 26.5811C51.1413 26.1012 51.8027 25.9209 52.7344 25.9209H56.7334ZM95.1572 76.1582H76.4561V66.915H95.1572V76.1582ZM131.866 29.4375C131.973 29.2507 132.079 29.0693 132.179 28.8906H132.18C132.929 27.5736 133.589 26.2852 134.189 25.0273C134.789 23.7707 135.389 22.3323 136.051 20.7119L136.061 20.6885L136.078 20.6709L136.09 20.6582C136.748 19.0441 137.497 17.1323 138.334 14.8643L138.369 14.7695L138.469 14.7832L141.535 15.2041L141.67 15.2227L141.64 15.3555C140.947 18.4195 140.045 21.8445 138.871 25.5986C137.844 28.8833 136.702 32.1457 135.425 35.3848L134.869 36.7715C133.908 39.1115 132.909 41.3294 131.866 43.418V75.6777H128.139L127.207 68.5049H124.501C122.998 70.6355 119.841 73.8165 117.315 75.4971C116.474 75.9772 115.812 76.1572 114.88 76.1572H110.972C110.04 76.1572 109.378 75.9776 108.626 75.3174H108.656C104.869 72.1843 102.337 68.1565 100.168 62.9277C99.8913 63.0039 99.6348 63.0743 99.3965 63.1338L99.2832 63.1621L99.248 63.0518L98.5557 60.9209L98.5273 60.833L98.6035 60.7803C98.7873 60.6508 98.9745 60.5153 99.168 60.3779C99.1636 60.3662 99.1596 60.3545 99.1553 60.3428C98.7945 59.5025 98.6748 58.7516 98.6748 57.8213V44.2275C98.6748 43.2972 98.7646 42.5463 99.0352 41.7061C100.809 35.9443 103.515 30.9928 108.626 26.7314C109.378 26.1613 110.04 25.8916 110.972 25.8916H114.609C115.541 25.8916 116.203 26.0716 117.045 26.5518C119.57 28.2324 122.727 31.3834 124.23 33.5439H126.936V5.90527H131.866V29.4375ZM5.1416 62.6533H27.1494V6.83496H32.29V57.1611C32.29 58.0914 32.2003 58.8423 31.9297 59.6826C29.5846 66.5547 25.8558 72.1363 21.6768 75.8574C21.4063 76.0374 21.1956 76.1279 20.835 76.1279H11.5146C11.1541 76.1279 10.9433 76.0374 10.6729 75.8574L10.6133 75.8877C6.40413 72.1665 2.67538 66.5841 0.360352 59.7119C0.0898543 58.8718 4.93063e-06 58.1215 0 57.1914V6.83496H5.1416V62.6533ZM156.279 25.8916C157.211 25.8916 157.873 26.0714 158.595 26.6416C162.894 30.0026 165.48 32.8834 167.464 37.7148C167.825 38.5551 167.915 39.306 167.915 40.2363V50.7393H139.773V60.1318C139.773 60.4919 139.774 60.7025 139.954 61.0625C140.435 62.5628 141.247 63.6731 142.479 64.6934C142.75 64.8734 142.961 64.9638 143.321 64.9639H162.143L165.3 59.3818H169.688V59.5625C169.688 59.9223 169.689 60.1323 169.599 60.4922C167.825 66.524 165.209 70.9058 159.798 75.2871C159.046 75.9473 158.414 76.1279 157.452 76.1279H147.2C146.268 76.1279 145.606 75.9471 144.854 75.377L144.915 75.4072C140.435 71.7761 137.549 67.1244 135.324 60.6123C134.963 59.7721 134.843 59.022 134.843 58.0918V43.957C134.843 43.0268 134.934 42.2767 135.204 41.4365C136.978 35.6747 139.684 31.0228 144.795 26.7314C145.546 26.1614 146.178 25.8916 147.14 25.8916H156.279ZM195.215 25.8613C196.147 25.8614 196.808 26.0414 197.649 26.6113C201.107 29.0421 204.174 33.1235 206.88 41.4961C206.97 41.8562 206.97 42.0666 206.97 42.4268V42.6064H202.58L199.424 37.0244H184.962V66.3447H196.628V75.6475H171.192V66.374H180.062V37.0547H171.192V26.3418H180.783L181.715 33.6934H183.939C185.443 31.5627 187.668 28.4719 189.983 26.6113C190.735 26.0413 191.396 25.8613 192.328 25.8613H195.215ZM126.906 51.6533C126.246 52.5014 125.586 53.2474 124.919 53.8896L124.914 53.8945C124.447 54.2983 123.438 54.8452 121.907 55.5342C120.37 56.2263 118.561 56.9185 116.486 57.6689C114.411 58.4196 112.243 59.1409 110.05 59.8906H110.049C107.854 60.6108 105.808 61.2721 103.882 61.8428C103.789 61.8704 103.696 61.8968 103.605 61.9238V64.8135H126.906V51.6533ZM103.605 57.1504C103.817 56.9932 104.034 56.8343 104.253 56.6709C106.506 54.9918 108.879 53.1318 111.403 51.0625C113.927 48.9929 116.393 46.8922 118.797 44.7627C121.199 42.6645 123.362 40.5967 125.253 38.6191C125.697 38.1545 126.116 37.7028 126.51 37.2646H103.605V57.1504ZM139.773 46.0879H162.984V37.0547H139.773V46.0879ZM139.199 0.44043C139.788 -0.14671 140.743 -0.147139 141.332 0.44043L146.051 5.15137C146.64 5.73916 146.639 6.6933 146.051 7.28125L141.332 11.9922C140.743 12.5799 139.788 12.5797 139.199 11.9922L134.479 7.28125C133.89 6.69332 133.89 5.7393 134.479 5.15137L139.199 0.44043Z" fill="white"/>
</svg>
