<?xml version="1.0" encoding="UTF-8"?>
<svg id="Layer_1" xmlns="http://www.w3.org/2000/svg" version="1.1" viewBox="0 0 89 115">
  <!-- Generator: Adobe Illustrator 30.4.0, SVG Export Plug-In . SVG Version: 2.1.4 Build 226)  -->
  <defs>
    <style>
      .st0 {
        fill: #685450;
      }
    </style>
  </defs>
  <rect class="st0" x="42" y="0" width="10" height="10"/>
  <rect class="st0" x="42" y="105" width="10" height="10"/>
  <rect class="st0" x="79" y="44" width="10" height="10"/>
  <rect class="st0" y="44" width="10" height="10"/>
  <polygon class="st0" points="79.22 77.23 70.48 77.23 66.03 76 63.22 70.31 74.08 69.04 70.48 56.22 70.48 45.51 70.48 41.48 63.22 27.3 54.4 18.57 44.09 18.57 39.64 18.57 28.67 27.3 24.33 35.18 19.52 44.65 11.7 67.58 18.83 72.33 23.47 69.42 28.67 70.31 24.22 72.21 22.41 77.23 16.72 77.23 10.12 81.93 12.6 96.43 79.22 96.43 84 81.93 79.22 77.23"/>
</svg>